<svg width="100" height="100" viewBox="0 0 100 100" fill="none" xmlns="http://www.w3.org/2000/svg">
<path d="M94.1149 59.6092C92.1493 56.5517 90.1838 53.6035 88.2183 50.546C87.7815 49.8908 87.7815 49.454 88.2183 48.7989C90.1838 45.8506 92.0401 42.9023 94.0057 39.954C96.2988 36.4598 95.0976 33.0747 91.1666 31.6552C87.8907 30.454 84.6149 29.1437 81.339 27.9425C80.6838 27.7242 80.3562 27.2874 80.3562 26.523C80.247 22.9195 80.0287 19.3161 79.8103 15.8218C79.5919 12 76.6436 9.8161 72.931 10.7989C69.4367 11.6724 65.9425 12.6552 62.5574 13.6379C61.793 13.8563 61.3562 13.6379 60.8103 13.092C58.6264 10.2529 56.3332 7.52299 54.1493 4.79311C51.747 1.73563 48.0344 1.73563 45.5229 4.79311C43.339 7.52299 41.0459 10.2529 38.9712 12.9828C38.4252 13.7471 37.8792 13.8563 37.0057 13.6379C33.6206 12.6552 30.2356 11.7816 27.8333 11.1264C23.1379 10.0345 20.2988 11.8908 20.0804 15.8218C19.862 19.4253 19.6436 23.0287 19.5344 26.7414C19.5344 27.5057 19.2068 27.8333 18.5517 28.1609C15.1666 29.4713 11.7815 30.7816 8.39648 32.092C4.90223 33.5115 3.81028 36.8966 5.88498 40.0632C7.8505 43.1207 9.81602 46.069 11.7815 49.1264C12.2183 49.7816 12.2183 50.2184 11.7815 50.9828C9.70682 54.0402 7.7413 57.0977 5.77578 60.2644C3.91946 63.2127 5.1206 66.7069 8.39646 68.0173C11.7815 69.3276 15.2758 70.6379 18.6608 71.9483C19.4252 72.1667 19.6436 72.6035 19.6436 73.3678C19.7528 76.8621 20.1896 80.2471 20.1896 83.7414C20.1896 87.2357 23.247 90.4023 27.5056 89.092C30.8907 88 34.2757 87.2356 37.6608 86.2529C38.316 86.0345 38.7528 86.1437 39.1895 86.7989C41.4827 89.6379 43.6666 92.3678 45.9597 95.2069C48.4711 98.2644 52.0746 98.2644 54.4769 95.2069C56.77 92.3678 58.9539 89.6379 61.247 86.7989C61.6838 86.2529 62.0114 86.0345 62.7757 86.2529C66.27 87.2356 69.7642 88.1092 73.2585 89.092C76.862 90.0747 79.9194 87.8908 80.0286 84.1782C80.247 80.5747 80.4654 76.9713 80.5746 73.2586C80.5746 72.3851 81.0114 72.0575 81.6665 71.8391C84.9424 70.6379 88.3275 69.3276 91.6033 68.0173C95.0976 66.2701 96.1896 62.7759 94.1149 59.6092ZM68.0172 41.7012L46.1781 63.5402C45.6321 64.0862 44.8677 64.523 44.1034 64.6322C43.885 64.6322 43.5574 64.7414 43.339 64.7414C42.3563 64.7414 41.2643 64.3046 40.4999 63.5402L31.5459 54.5862C30.0172 53.0575 30.0172 50.546 31.5459 49.0172C33.0746 47.4885 35.5861 47.4885 37.1149 49.0172L43.2298 55.1322L62.2298 36.1322C63.7586 34.6035 66.2701 34.6035 67.7988 36.1322C69.5459 37.6609 69.5459 40.1724 68.0172 41.7012Z" fill="#09B285"/>
</svg>
