<svg xmlns="http://www.w3.org/2000/svg" width="21" height="20" viewBox="0 0 21 20" fill="none">
  <g clip-path="url(#clip0_7428_9537)">
    <path d="M20.305 10.2302C20.305 9.55044 20.2499 8.86699 20.1323 8.19824H10.7V12.0491H16.1015C15.8773 13.291 15.1571 14.3897 14.1026 15.0878V17.5864H17.325C19.2174 15.8448 20.305 13.2726 20.305 10.2302Z" fill="white"/>
    <path d="M10.7 20.0008C13.397 20.0008 15.6715 19.1152 17.3287 17.5867L14.1062 15.088C13.2096 15.698 12.0522 16.0434 10.7037 16.0434C8.0948 16.0434 5.88279 14.2833 5.08911 11.917H1.76373V14.4928C3.46133 17.8696 6.91898 20.0008 10.7 20.0008Z" fill="white"/>
    <path d="M5.08546 11.9168C4.66657 10.6748 4.66657 9.32995 5.08546 8.08799V5.51221H1.76376C0.345428 8.33785 0.345428 11.6669 1.76376 14.4925L5.08546 11.9168Z" fill="white"/>
    <path d="M10.7 3.95805C12.1257 3.936 13.5036 4.47247 14.5361 5.45722L17.3911 2.60218C15.5833 0.904587 13.1839 -0.0287217 10.7 0.000673888C6.91898 0.000673888 3.46133 2.13185 1.76373 5.51234L5.08543 8.08813C5.87544 5.71811 8.09113 3.95805 10.7 3.95805Z" fill="white"/>
  </g>
  <defs>
    <clipPath id="clip0_7428_9537">
      <rect width="20" height="20" fill="white" transform="translate(0.5)"/>
    </clipPath>
  </defs>
</svg>