<svg xmlns="http://www.w3.org/2000/svg" width="131" height="66" viewBox="0 0 131 66" fill="none">
  <path d="M129.667 1C108.871 2.73299 107.583 44.2218 87.0001 49C70.027 52.9402 61.4323 30.5738 44.3334 33C25.7871 35.6316 19.8522 58.9382 1.66675 65H129.667V1Z" fill="#ECFDF3"/>
  <path d="M129.667 1C108.871 2.73299 107.583 44.2218 87.0001 49C70.027 52.9402 61.4323 30.5738 44.3334 33C25.7871 35.6316 19.8522 58.9382 1.66675 65H129.667V1Z" fill="url(#paint0_linear_7428_3518)"/>
  <path d="M1.66675 65C19.8522 58.9382 25.7871 35.6316 44.3334 33C61.4323 30.5738 70.027 52.9402 87.0001 49C107.583 44.2218 108.871 2.73299 129.667 1" stroke="#12B76A" stroke-width="2" stroke-linecap="round" stroke-linejoin="round"/>
  <defs>
    <linearGradient id="paint0_linear_7428_3518" x1="65.6667" y1="1" x2="65.6667" y2="65" gradientUnits="userSpaceOnUse">
      <stop offset="0.641167" stop-color="white" stop-opacity="0"/>
      <stop offset="1" stop-color="white"/>
    </linearGradient>
  </defs>
</svg>