<svg xmlns="http://www.w3.org/2000/svg" width="20" height="20" viewBox="0 0 20 20" fill="none">
  <path d="M1.9082 6.48348V14.5918C1.9082 16.1751 3.0332 16.8251 4.39987 16.0418L6.3582 14.9251C6.7832 14.6835 7.49154 14.6585 7.9332 14.8835L12.3082 17.0751C12.7499 17.2918 13.4582 17.2751 13.8832 17.0335L17.4915 14.9668C17.9499 14.7001 18.3332 14.0501 18.3332 13.5168V5.40848C18.3332 3.82514 17.2082 3.17514 15.8415 3.95848L13.8832 5.07514C13.4582 5.31681 12.7499 5.34181 12.3082 5.11681L7.9332 2.93348C7.49154 2.71681 6.7832 2.73348 6.3582 2.97514L2.74987 5.04181C2.2832 5.30848 1.9082 5.95848 1.9082 6.48348Z" stroke="white" stroke-width="1.5" stroke-linecap="round" stroke-linejoin="round"/>
  <path opacity="0.4" d="M7.1333 3.3335V14.1668" stroke="white" stroke-width="1.5" stroke-linecap="round" stroke-linejoin="round"/>
  <path opacity="0.4" d="M13.1084 5.5166V16.6666" stroke="white" stroke-width="1.5" stroke-linecap="round" stroke-linejoin="round"/>
</svg>