<svg xmlns="http://www.w3.org/2000/svg" width="30" height="30" viewBox="0 0 30 30" fill="none">
  <g clip-path="url(#clip0_7428_3460)">
    <path d="M15.8591 29.3433C23.6689 29.3433 30 23.0122 30 15.2024C30 7.39261 23.6689 1.06152 15.8591 1.06152C8.04935 1.06152 1.71826 7.39261 1.71826 15.2024C1.71826 23.0122 8.04935 29.3433 15.8591 29.3433Z" fill="url(#paint0_linear_7428_3460)"/>
    <path d="M25.8161 7.76503C25.3309 7.40862 24.8164 7.08168 24.2772 6.78479C23.9803 6.24556 23.6534 5.73109 23.2969 5.24585C21.3176 2.55132 18.6761 1.06738 15.8592 1.06738C13.0422 1.06738 10.4008 2.55132 8.4214 5.24585C8.06493 5.73109 7.73805 6.24562 7.44117 6.78479C6.90193 7.08168 6.38746 7.40856 5.90223 7.76503C3.2077 9.74444 1.72375 12.3859 1.72375 15.2028C1.72375 18.0197 3.2077 20.6612 5.90223 22.6406C6.38746 22.997 6.90199 23.3239 7.44117 23.6208C7.73805 24.16 8.06493 24.6745 8.4214 25.1597C10.4008 27.8543 13.0422 29.3382 15.8592 29.3382C18.6761 29.3382 21.3176 27.8543 23.2969 25.1597C23.6534 24.6745 23.9803 24.16 24.2772 23.6207C24.8164 23.3239 25.3309 22.997 25.8161 22.6405C28.5106 20.6611 29.9946 18.0197 29.9946 15.2027C29.9946 12.3858 28.5106 9.74444 25.8161 7.76503ZM15.8592 28.6728C15.0829 28.6728 14.26 27.5164 13.6095 25.5432C14.3468 25.6299 15.0983 25.6749 15.8592 25.6749C16.62 25.6749 17.3715 25.6299 18.1088 25.5432C17.4583 27.5164 16.6355 28.6728 15.8592 28.6728ZM15.8592 25.0094C15.0181 25.0094 14.1951 24.9525 13.3962 24.8446C12.9529 23.2771 12.6311 21.3954 12.4469 19.3411C13.5496 19.4199 14.6936 19.4606 15.8592 19.4606C17.0247 19.4606 18.1688 19.4199 19.2715 19.3411C19.0873 21.3954 18.7655 23.277 18.3222 24.8446C17.5233 24.9525 16.7003 25.0094 15.8592 25.0094ZM15.8592 1.73285C16.6355 1.73285 17.4583 2.88927 18.1088 4.86244C17.3715 4.77568 16.62 4.73074 15.8592 4.73074C15.0983 4.73074 14.3468 4.77568 13.6095 4.86244C14.26 2.88921 15.0829 1.73285 15.8592 1.73285ZM15.8592 5.39621C16.7003 5.39621 17.5233 5.45315 18.3222 5.56109C18.7655 7.12862 19.0873 9.01021 19.2715 11.0646C18.1688 10.9857 17.0247 10.9451 15.8592 10.9451C14.6936 10.9451 13.5496 10.9857 12.4469 11.0646C12.631 9.01021 12.9529 7.12862 13.3962 5.56109C14.1951 5.45315 15.0181 5.39621 15.8592 5.39621ZM12.2668 15.2028C12.2668 14.0163 12.3096 12.8536 12.392 11.7357C13.51 11.6532 14.6726 11.6104 15.8592 11.6104C17.0456 11.6104 18.2083 11.6532 19.3263 11.7357C19.4088 12.8536 19.4515 14.0163 19.4515 15.2028C19.4515 16.3893 19.4088 17.552 19.3263 18.6699C18.2083 18.7523 17.0456 18.7951 15.8592 18.7951C14.6727 18.7951 13.51 18.7523 12.392 18.6699C12.3096 17.552 12.2668 16.3893 12.2668 15.2028ZM11.7209 18.6151C9.66652 18.431 7.78487 18.1091 6.2174 17.6657C6.10952 16.8669 6.05252 16.0439 6.05252 15.2028C6.05252 14.3617 6.10946 13.5387 6.2174 12.7399C7.78487 12.2966 9.66652 11.9747 11.7209 11.7905C11.642 12.8932 11.6014 14.0373 11.6014 15.2028C11.6014 16.3683 11.642 17.5124 11.7209 18.6151ZM19.9975 11.7906C22.0519 11.9747 23.9335 12.2966 25.501 12.7399C25.6089 13.5387 25.6659 14.3618 25.6659 15.2029C25.6659 16.0439 25.6089 16.867 25.501 17.6658C23.9335 18.1091 22.0519 18.431 19.9975 18.6151C20.0763 17.5124 20.117 16.3684 20.117 15.2029C20.117 14.0373 20.0763 12.8933 19.9975 11.7906ZM19.9442 11.1179C19.7689 9.10421 19.4635 7.24738 19.043 5.67368C20.7783 5.98103 22.383 6.53362 23.7839 7.27815C24.5284 8.67903 25.081 10.2837 25.3883 12.019C23.8146 11.5986 21.9578 11.2931 19.9442 11.1179ZM11.7742 11.1179C9.76052 11.2931 7.9037 11.5986 6.32999 12.019C6.63734 10.2837 7.18993 8.67903 7.93446 7.27815C9.33534 6.53362 10.94 5.98103 12.6753 5.67368C12.2549 7.24738 11.9495 9.10421 11.7742 11.1179ZM5.51876 17.4524C3.54558 16.8019 2.38917 15.9791 2.38917 15.2028C2.38917 14.4265 3.54552 13.6037 5.51876 12.9531C5.43205 13.6904 5.38705 14.442 5.38705 15.2028C5.38705 15.9636 5.43205 16.7151 5.51876 17.4524ZM11.7742 19.2878C11.9494 21.3014 12.2549 23.1583 12.6753 24.732C10.94 24.4246 9.33534 23.872 7.93446 23.1275C7.18993 21.7266 6.63734 20.122 6.32999 18.3867C7.90376 18.8071 9.76058 19.1126 11.7742 19.2878ZM19.9442 19.2878C21.9578 19.1126 23.8146 18.8071 25.3883 18.3867C25.081 20.122 24.5284 21.7266 23.7839 23.1275C22.383 23.8721 20.7783 24.4246 19.043 24.732C19.4635 23.1583 19.7689 21.3014 19.9442 19.2878ZM26.1996 12.9532C28.1728 13.6037 29.3291 14.4265 29.3291 15.2029C29.3291 15.9791 28.1728 16.802 26.1996 17.4525C26.2863 16.7152 26.3312 15.9637 26.3312 15.2029C26.3313 14.442 26.2863 13.6905 26.1996 12.9532ZM29.172 13.7042C28.5209 13.149 27.4888 12.6499 26.0991 12.2228C25.8571 10.6906 25.4288 9.23079 24.8292 7.89373C27.1043 9.37521 28.6866 11.4096 29.172 13.7042ZM23.1683 6.23285C21.8313 5.63327 20.3715 5.20491 18.8392 4.96285C18.4122 3.57315 17.913 2.54103 17.3578 1.88991C19.6524 2.37532 21.6868 3.95762 23.1683 6.23285ZM14.3606 1.88997C13.8053 2.54109 13.3062 3.57321 12.8792 4.96291C11.3469 5.20491 9.88711 5.63327 8.55005 6.23285C10.0315 3.95762 12.0659 2.37532 14.3606 1.88997ZM6.88917 7.89368C6.28964 9.23074 5.86123 10.6906 5.61923 12.2228C4.22952 12.6499 3.1974 13.149 2.54628 13.7042C3.03164 11.4096 4.61399 9.37521 6.88917 7.89368ZM2.54628 16.7014C3.1974 17.2567 4.22952 17.7558 5.61923 18.1829C5.86123 19.7151 6.28964 21.1749 6.88917 22.512C4.61399 21.0304 3.03164 18.996 2.54628 16.7014ZM8.54999 24.1728C9.88705 24.7724 11.3469 25.2007 12.8791 25.4427C13.3062 26.8324 13.8053 27.8646 14.3605 28.5157C12.0659 28.0303 10.0315 26.448 8.54999 24.1728ZM17.3578 28.5157C17.913 27.8646 18.4121 26.8324 18.8392 25.4427C20.3714 25.2007 21.8312 24.7723 23.1683 24.1728C21.6868 26.448 19.6524 28.0303 17.3578 28.5157ZM24.8292 22.512C25.4288 21.1749 25.8571 19.7151 26.0991 18.1829C27.4888 17.7559 28.5209 17.2567 29.172 16.7015C28.6866 18.996 27.1043 21.0304 24.8292 22.512Z" fill="url(#paint1_linear_7428_3460)"/>
    <path d="M10.9956 1.92054C7.45515 3.21736 4.57809 5.88954 3.01074 9.28995C2.82497 9.69295 2.73303 10.1328 2.73303 10.5766C2.73303 11.4031 3.06139 12.1958 3.6458 12.7802L3.9348 13.0692C5.22997 14.3644 6.98656 15.092 8.81821 15.092C9.09186 15.092 9.31368 14.8702 9.31368 14.5966C9.31368 14.3229 9.09186 14.1011 8.81821 14.1011H7.29521C6.5928 14.1011 6.02333 13.5317 6.02333 12.8292C6.02333 12.1268 6.59274 11.5574 7.29521 11.5574H8.48474C9.91109 11.5574 11.279 10.9908 12.2876 9.98218L14.1242 8.14554C14.5241 7.7456 15.0666 7.52089 15.6322 7.52089C16.4504 7.52089 17.1965 7.05277 17.5524 6.31601C17.9887 5.41307 17.3309 4.36465 16.3281 4.36465H13.9584C13.2617 4.36465 12.6969 3.79989 12.6969 3.10312C12.6968 2.22395 11.8213 1.61812 10.9956 1.92054Z" fill="url(#paint2_linear_7428_3460)"/>
    <path d="M29.6708 12.1559C29.4755 11.2666 28.6804 10.6377 27.7701 10.6377H25.7766H24.7111C22.8999 10.6377 21.4318 12.1059 21.4318 13.917V14.316C21.4318 15.9068 22.7214 17.1963 24.3121 17.1963C25.1209 17.1963 25.7766 17.852 25.7766 18.6609V22.4852C25.7766 23.4818 27.0706 23.8788 27.6245 23.0503C28.7754 21.3285 29.5584 19.3396 29.8609 17.1963C29.9524 16.5453 30.0001 15.8793 30.0001 15.2028C30 14.1565 29.8863 13.1372 29.6708 12.1559Z" fill="url(#paint3_linear_7428_3460)"/>
    <path d="M22.1848 2.55273C23.1385 4.45621 23.6761 6.60438 23.6761 8.87838C23.6761 16.6881 17.3451 23.0193 9.53524 23.0193C7.26124 23.0193 5.11307 22.4817 3.20959 21.5279C5.53136 26.1617 10.3234 29.3431 15.8591 29.3431C23.6689 29.3431 30 23.0121 30 15.2023C30 9.6665 26.8185 4.8745 22.1848 2.55273Z" fill="url(#paint4_linear_7428_3460)"/>
    <path d="M22.9963 9.35928C22.2873 8.65028 20.5248 9.23664 17.1695 12.3705L15.2087 12.1289L14.5753 11.4754C14.2368 11.1369 13.688 11.1369 13.3494 11.4754C13.2685 11.5563 13.2078 11.6495 13.1658 11.7488L12.6615 11.2415C12.323 10.9029 11.7741 10.9029 11.4356 11.2415C11.3224 11.3547 11.248 11.4916 11.2104 11.6362L10.4521 11.5427C10.2713 11.5204 10.0637 11.6031 9.9069 11.76L8.6089 13.058C8.4719 13.195 8.47255 13.3923 8.61026 13.4516L12.5165 17.2689C11.3777 18.5937 10.3371 19.9038 9.53826 21.0328L7.59367 20.7688C7.51555 20.7582 7.42532 20.7937 7.3572 20.8618L6.75143 21.4676C6.63449 21.5845 6.62402 21.7523 6.72949 21.82L8.1899 23.2372C7.94473 23.7735 7.87714 24.1534 8.03967 24.3159L12.7162 28.9925C13.727 29.2219 14.7788 29.3435 15.8591 29.3435C23.293 29.3435 29.3868 23.607 29.9562 16.3193L22.9963 9.35928Z" fill="url(#paint5_linear_7428_3460)"/>
    <path d="M12.0486 12.721C12.5273 12.721 12.9154 12.3329 12.9154 11.8541C12.9154 11.3754 12.5273 10.9873 12.0486 10.9873C11.5699 10.9873 11.1818 11.3754 11.1818 11.8541C11.1818 12.3329 11.5699 12.721 12.0486 12.721Z" fill="url(#paint6_linear_7428_3460)"/>
    <path d="M12.0485 12.5778C12.4481 12.5778 12.772 12.2539 12.772 11.8543C12.772 11.4548 12.4481 11.1309 12.0485 11.1309C11.649 11.1309 11.3251 11.4548 11.3251 11.8543C11.3251 12.2539 11.649 12.5778 12.0485 12.5778Z" fill="url(#paint7_linear_7428_3460)"/>
    <path d="M12.871 11.5801C12.8298 11.7039 12.76 11.8203 12.6615 11.9189C12.323 12.2574 11.7741 12.2574 11.4356 11.9189C11.337 11.8203 11.2672 11.7039 11.2261 11.5801C11.1258 11.8815 11.1957 12.2272 11.4356 12.4671C11.7741 12.8057 12.323 12.8057 12.6615 12.4671C12.9014 12.2272 12.9712 11.8816 12.871 11.5801Z" fill="url(#paint8_linear_7428_3460)"/>
    <path d="M12.0486 12.721C12.5273 12.721 12.9154 12.3329 12.9154 11.8541C12.9154 11.3754 12.5273 10.9873 12.0486 10.9873C11.5699 10.9873 11.1818 11.3754 11.1818 11.8541C11.1818 12.3329 11.5699 12.721 12.0486 12.721Z" fill="url(#paint9_linear_7428_3460)"/>
    <path d="M14.5752 12.7015C14.2367 13.04 13.6879 13.04 13.3494 12.7015C13.0108 12.3629 13.0108 11.8141 13.3494 11.4756C13.6879 11.137 14.2367 11.137 14.5752 11.4756C14.9137 11.8141 14.9137 12.363 14.5752 12.7015Z" fill="url(#paint10_linear_7428_3460)"/>
    <path d="M13.9624 12.8122C14.3619 12.8122 14.6858 12.4883 14.6858 12.0887C14.6858 11.6891 14.3619 11.3652 13.9624 11.3652C13.5628 11.3652 13.2389 11.6891 13.2389 12.0887C13.2389 12.4883 13.5628 12.8122 13.9624 12.8122Z" fill="url(#paint11_linear_7428_3460)"/>
    <path d="M14.7848 11.8145C14.7437 11.9383 14.6738 12.0547 14.5753 12.1533C14.2368 12.4918 13.6879 12.4918 13.3494 12.1533C13.2508 12.0547 13.1811 11.9383 13.1399 11.8145C13.0397 12.1159 13.1095 12.4616 13.3494 12.7015C13.6879 13.04 14.2368 13.04 14.5753 12.7015C14.8152 12.4615 14.8851 12.1159 14.7848 11.8145Z" fill="url(#paint12_linear_7428_3460)"/>
    <path d="M14.5752 12.7015C14.2367 13.04 13.6879 13.04 13.3494 12.7015C13.0108 12.3629 13.0108 11.8141 13.3494 11.4756C13.6879 11.137 14.2367 11.137 14.5752 11.4756C14.9137 11.8141 14.9137 12.363 14.5752 12.7015Z" fill="url(#paint13_linear_7428_3460)"/>
    <path d="M20.5012 21.1741C20.98 21.1741 21.368 20.786 21.368 20.3073C21.368 19.8285 20.98 19.4404 20.5012 19.4404C20.0225 19.4404 19.6344 19.8285 19.6344 20.3073C19.6344 20.786 20.0225 21.1741 20.5012 21.1741Z" fill="url(#paint14_linear_7428_3460)"/>
    <path d="M20.5012 21.0309C20.9007 21.0309 21.2247 20.707 21.2247 20.3075C21.2247 19.9079 20.9007 19.584 20.5012 19.584C20.1016 19.584 19.7777 19.9079 19.7777 20.3075C19.7777 20.707 20.1016 21.0309 20.5012 21.0309Z" fill="url(#paint15_linear_7428_3460)"/>
    <path d="M20.7752 19.4847C20.6514 19.5259 20.535 19.5957 20.4364 19.6942C20.0979 20.0328 20.0979 20.5816 20.4364 20.9201C20.535 21.0187 20.6514 21.0885 20.7752 21.1297C20.4738 21.2299 20.1281 21.1601 19.8882 20.9201C19.5496 20.5816 19.5496 20.0328 19.8882 19.6942C20.1281 19.4543 20.4737 19.3845 20.7752 19.4847Z" fill="url(#paint16_linear_7428_3460)"/>
    <path d="M20.5012 21.1741C20.98 21.1741 21.368 20.786 21.368 20.3073C21.368 19.8285 20.98 19.4404 20.5012 19.4404C20.0225 19.4404 19.6344 19.8285 19.6344 20.3073C19.6344 20.786 20.0225 21.1741 20.5012 21.1741Z" fill="url(#paint17_linear_7428_3460)"/>
    <path d="M19.6543 17.7803C19.3158 18.1188 19.3158 18.6676 19.6543 19.0061C19.9928 19.3447 20.5416 19.3447 20.8802 19.0061C21.2187 18.6676 21.2187 18.1188 20.8802 17.7803C20.5416 17.4417 19.9928 17.4417 19.6543 17.7803Z" fill="url(#paint18_linear_7428_3460)"/>
    <path d="M20.2673 19.1169C20.6669 19.1169 20.9908 18.793 20.9908 18.3934C20.9908 17.9938 20.6669 17.6699 20.2673 17.6699C19.8677 17.6699 19.5438 17.9938 19.5438 18.3934C19.5438 18.793 19.8677 19.1169 20.2673 19.1169Z" fill="url(#paint19_linear_7428_3460)"/>
    <path d="M20.5413 17.5706C20.4175 17.6118 20.3011 17.6817 20.2025 17.7802C19.864 18.1187 19.864 18.6675 20.2025 19.0061C20.3011 19.1047 20.4175 19.1744 20.5413 19.2156C20.2399 19.3158 19.8942 19.246 19.6543 19.0061C19.3158 18.6675 19.3158 18.1187 19.6543 17.7802C19.8942 17.5402 20.2398 17.4705 20.5413 17.5706Z" fill="url(#paint20_linear_7428_3460)"/>
    <path d="M19.6543 17.7803C19.3158 18.1188 19.3158 18.6676 19.6543 19.0061C19.9928 19.3447 20.5416 19.3447 20.8802 19.0061C21.2187 18.6676 21.2187 18.1188 20.8802 17.7803C20.5416 17.4417 19.9928 17.4417 19.6543 17.7803Z" fill="url(#paint21_linear_7428_3460)"/>
    <path d="M6.72947 21.8196L8.58747 23.0134L10.4454 21.1554L7.59364 20.7684C7.51553 20.7579 7.42529 20.7933 7.35717 20.8614L6.75141 21.4672C6.63447 21.5842 6.62406 21.7519 6.72947 21.8196Z" fill="url(#paint22_linear_7428_3460)"/>
    <path d="M6.93261 21.2863L6.75143 21.4674C6.63449 21.5844 6.62402 21.7521 6.72949 21.8199L8.58749 23.0137L10.0208 21.5803L7.16908 21.1933C7.09096 21.1827 7.00073 21.2182 6.93261 21.2863Z" fill="url(#paint23_linear_7428_3460)"/>
    <path d="M10.5356 25.6261L9.3418 23.7681L11.1997 21.9102L11.5867 24.7619C11.5973 24.84 11.5619 24.9303 11.4938 24.9984L10.888 25.6042C10.771 25.7211 10.6033 25.7315 10.5356 25.6261Z" fill="url(#paint24_linear_7428_3460)"/>
    <path d="M11.0692 25.4232L10.888 25.6044C10.7711 25.7213 10.6033 25.7318 10.5356 25.6263L9.3418 23.7683L10.7752 22.335L11.1622 25.1867C11.1728 25.2648 11.1373 25.3551 11.0692 25.4232Z" fill="url(#paint25_linear_7428_3460)"/>
    <path d="M8.61024 13.4515L14.5227 15.9997L18.0441 12.4782L10.4521 11.5427C10.2712 11.5204 10.0637 11.6031 9.90689 11.7599L8.60889 13.0579C8.47195 13.1948 8.47259 13.3922 8.61024 13.4515Z" fill="url(#paint26_linear_7428_3460)"/>
    <path d="M9.07034 12.5968L8.60893 13.0582C8.47193 13.1952 8.47258 13.3926 8.61028 13.4519L14.5228 16L17.2076 13.3152L9.61552 12.3796C9.4347 12.3572 9.22723 12.4399 9.07034 12.5968Z" fill="url(#paint27_linear_7428_3460)"/>
    <path d="M12.4493 12.7288L9.61552 12.3796C9.4347 12.3573 9.22723 12.44 9.07034 12.5969L8.60893 13.0583C8.47193 13.1953 8.47258 13.3926 8.61028 13.4519L10.7878 14.3903L12.4493 12.7288Z" fill="url(#paint28_linear_7428_3460)"/>
    <path d="M8.61023 13.4519L14.5227 16L15.7336 14.7891L9.17894 12.4883L8.60894 13.0583C8.47194 13.1952 8.47259 13.3926 8.61023 13.4519Z" fill="url(#paint29_linear_7428_3460)"/>
    <path d="M18.9039 23.7454L16.3558 17.8329L19.8772 14.3115L20.8128 21.9036C20.8351 22.0844 20.7524 22.2919 20.5955 22.4488L19.2976 23.7467C19.1606 23.8837 18.9632 23.8831 18.9039 23.7454Z" fill="url(#paint30_linear_7428_3460)"/>
    <path d="M19.759 23.2857L19.2975 23.7471C19.1605 23.8841 18.9632 23.8834 18.9039 23.7457L16.3558 17.8333L19.0407 15.1484L19.9762 22.7405C19.9985 22.9213 19.9158 23.1288 19.759 23.2857Z" fill="url(#paint31_linear_7428_3460)"/>
    <path d="M19.6271 19.9062L19.9763 22.74C19.9986 22.9208 19.9159 23.1283 19.759 23.2852L19.2976 23.7466C19.1606 23.8836 18.9633 23.883 18.904 23.7452L17.9656 21.5678L19.6271 19.9062Z" fill="url(#paint32_linear_7428_3460)"/>
    <path d="M18.9039 23.7455L16.3558 17.833L17.5668 16.6221L19.8675 23.1768L19.2975 23.7468C19.1606 23.8838 18.9632 23.8831 18.9039 23.7455Z" fill="url(#paint33_linear_7428_3460)"/>
    <path d="M18.8429 16.3659C14.7128 20.4961 8.82753 25.1038 8.03965 24.3159C7.25177 23.5281 11.8595 17.6429 15.9896 13.5127C20.1198 9.38259 22.2083 8.57147 22.9962 9.35936C23.7841 10.1473 22.9731 12.2358 18.8429 16.3659Z" fill="url(#paint34_linear_7428_3460)"/>
    <path d="M18.5368 16.2449C14.6083 20.1734 9.07487 24.6205 8.40487 23.9505C7.73487 23.2804 12.182 17.747 16.1104 13.8185C20.0389 9.89006 21.961 9.05424 22.631 9.72424C23.3011 10.3943 22.4652 12.3165 18.5368 16.2449Z" fill="url(#paint35_linear_7428_3460)"/>
    <path d="M18.8429 16.3659C22.973 12.2357 23.7841 10.1473 22.9963 9.35938L8.03967 24.316C8.82761 25.1038 14.7128 20.4961 18.8429 16.3659Z" fill="url(#paint36_linear_7428_3460)"/>
    <path d="M19.4784 10.8909C19.2255 11.1111 18.9601 11.3482 18.6817 11.603C18.6105 11.6682 18.617 11.7693 18.694 11.7832C19.1702 11.8689 19.6001 12.0775 19.9388 12.4163C20.2776 12.755 20.4862 13.185 20.572 13.6611C20.5858 13.7381 20.687 13.7446 20.7521 13.6734C21.0069 13.395 21.244 13.1296 21.4643 12.8767C21.6141 12.7045 21.6787 12.4879 21.6302 12.3131C21.5241 11.9312 21.332 11.5865 21.0503 11.3048C20.7685 11.023 20.4239 10.831 20.042 10.7249C19.8672 10.6763 19.6506 10.7409 19.4784 10.8909Z" fill="url(#paint37_linear_7428_3460)"/>
    <path d="M21.4641 12.8775C21.2706 13.1004 21.0635 13.3328 20.843 13.5751C20.813 13.6081 20.783 13.641 20.7524 13.6745C20.6871 13.7457 20.5859 13.7393 20.5718 13.6622C20.4865 13.1857 20.2777 12.7557 19.9388 12.4169C19.9188 12.3969 19.8988 12.3775 19.8783 12.3593C19.6377 12.1363 19.3553 11.9751 19.0459 11.8728C19.3241 11.6193 19.5883 11.3828 19.8406 11.1634C20.013 11.0134 20.2294 10.9487 20.4041 10.9975C20.6118 11.0551 20.8083 11.1381 20.99 11.2475C21.0106 11.2663 21.0306 11.2857 21.0506 11.3057C21.3324 11.5875 21.5241 11.9322 21.63 12.314C21.6788 12.4887 21.6141 12.7051 21.4641 12.8775Z" fill="url(#paint38_linear_7428_3460)"/>
    <path d="M20.572 13.662C20.5858 13.739 20.687 13.7454 20.7521 13.6743C21.0069 13.3959 21.244 13.1305 21.4643 12.8775C21.6141 12.7054 21.6787 12.4888 21.6302 12.314C21.5241 11.932 21.332 11.5874 21.0503 11.3057L19.9388 12.4171C20.2776 12.7559 20.4862 13.1858 20.572 13.662Z" fill="url(#paint39_linear_7428_3460)"/>
    <path d="M9.42761 23.0527L9.30332 22.9284C9.19937 22.8244 9.23502 22.6246 9.38085 22.4941L11.5276 20.5723C11.6219 20.4879 11.7469 20.4746 11.8141 20.5419C11.8814 20.6091 11.8681 20.7341 11.7836 20.8284L9.86184 22.9752C9.73137 23.1209 9.53155 23.1566 9.42761 23.0527Z" fill="url(#paint40_linear_7428_3460)"/>
    <path d="M1.87965 27.4441C1.75624 27.4441 1.63747 27.4365 1.52424 27.4217C1.365 27.4007 1.26065 27.2444 1.30359 27.0897L1.42135 26.6646C1.45535 26.542 1.57194 26.4605 1.69859 26.473C1.93647 26.4963 2.23153 26.4705 2.57053 26.3964C2.70759 26.3664 2.84429 26.4495 2.88077 26.585L2.99424 27.0064C3.03347 27.1522 2.942 27.2999 2.79459 27.3327C2.46159 27.4067 2.15477 27.4441 1.87965 27.4441ZM3.99047 26.669L3.82724 26.2649C3.77359 26.132 3.83577 25.9813 3.96735 25.9247C4.26324 25.7973 4.57647 25.6484 4.90318 25.48C5.03106 25.414 5.18853 25.4628 5.25624 25.5898L5.4613 25.9744C5.53047 26.1041 5.47971 26.2655 5.34906 26.3329C4.99724 26.5144 4.65877 26.6751 4.33788 26.813C4.20241 26.8712 4.04577 26.8059 3.99047 26.669ZM0.424471 26.332C0.275353 26.3951 0.103882 26.3105 0.0657059 26.1531C0.0220588 25.9728 0 25.7759 0 25.5644C0 25.342 0.0244118 25.0985 0.0728235 24.838C0.100412 24.6894 0.246235 24.5934 0.393235 24.6284L0.817706 24.7293C0.953294 24.7615 1.04071 24.8944 1.01576 25.0315C0.980353 25.2265 0.962471 25.405 0.962471 25.5643C0.962471 25.6751 0.971118 25.7762 0.988118 25.8667C1.01112 25.989 0.947177 26.1104 0.832647 26.159L0.424471 26.332ZM6.36459 25.4658L6.14247 25.0909C6.069 24.9668 6.10859 24.8068 6.23188 24.7321C6.52271 24.5559 6.82247 24.3668 7.12747 24.1672C7.2483 24.0882 7.41041 24.1218 7.49041 24.242L7.73183 24.6048C7.813 24.7268 7.77871 24.8913 7.65612 24.9715C7.34036 25.1782 7.02965 25.3741 6.72794 25.5568C6.60247 25.6328 6.43935 25.5921 6.36459 25.4658ZM8.95283 24.0833C8.83371 24.1684 8.66818 24.1408 8.58388 24.0211L8.95283 24.0833ZM1.11553 23.7789L0.708765 23.6224C0.570882 23.5693 0.502941 23.4135 0.559235 23.2769C0.692177 22.9544 0.849118 22.6132 1.02806 22.2578C1.09418 22.1264 1.25524 22.074 1.38565 22.1421L1.77206 22.3436C1.89959 22.4101 1.94988 22.567 1.88524 22.6954C1.72 23.0238 1.57541 23.3378 1.45318 23.6335C1.39853 23.7658 1.24906 23.8303 1.11553 23.7789ZM2.26353 21.4541L1.88706 21.2347C1.76047 21.1609 1.71824 20.9982 1.79324 20.8724C1.79565 20.8684 1.79806 20.8643 1.80041 20.8603C1.87547 20.7345 2.039 20.694 2.164 20.7703L2.536 20.9972C2.65929 21.0725 2.69877 21.2331 2.62471 21.3572C2.62382 21.3587 2.62288 21.3602 2.622 21.3617C2.54806 21.4857 2.38829 21.5268 2.26353 21.4541ZM23.4433 9.12825L23.0863 8.87837C22.9679 8.79549 22.9382 8.63248 23.0203 8.51354C23.2266 8.21454 23.4241 7.91913 23.6104 7.63107C23.6888 7.50984 23.8503 7.47501 23.9722 7.55237L24.3401 7.78596C24.4637 7.86449 24.4995 8.02854 24.4199 8.15154C24.2278 8.44878 24.0241 8.75331 23.8115 9.06143C23.7284 9.18196 23.5632 9.21219 23.4433 9.12825ZM24.8791 6.90266L24.503 6.68254C24.3787 6.60978 24.3359 6.45019 24.4073 6.32507C24.589 6.0066 24.7552 5.69778 24.9038 5.40243C24.9684 5.27407 25.1237 5.22172 25.2531 5.28425L25.6455 5.4739C25.7781 5.53796 25.8327 5.69772 25.7665 5.82925C25.6091 6.14231 25.4334 6.46901 25.2415 6.80519C25.1687 6.93266 25.0058 6.97678 24.8791 6.90266ZM26.0634 4.51772L25.6574 4.35954C25.524 4.3076 25.4575 4.15866 25.5057 4.02396C25.6292 3.67919 25.7175 3.36407 25.7697 3.08237C25.7948 2.94649 25.9213 2.85419 26.0586 2.87019L26.4922 2.9209C26.6428 2.93849 26.7481 3.07901 26.7213 3.22813C26.6594 3.57272 26.5542 3.95213 26.4071 4.3616C26.357 4.5009 26.2012 4.57143 26.0634 4.51772ZM22.4772 2.04272L22.2968 1.64584C22.2359 1.51184 22.2968 1.35331 22.4319 1.29501C22.8117 1.13137 23.1702 0.99825 23.5031 0.897191C23.6465 0.853662 23.7974 0.937191 23.8354 1.08225L23.946 1.50407C23.9817 1.64037 23.9042 1.78096 23.7695 1.82213C23.4773 1.91137 23.16 2.02954 22.8214 2.17519C22.6897 2.23184 22.5365 2.17325 22.4772 2.04272ZM25.9625 1.97531C25.8552 2.0166 25.7311 1.98525 25.6619 1.89337C25.646 1.87213 25.6288 1.85231 25.6102 1.83378C25.4679 1.69149 25.2327 1.61913 24.9111 1.61866H24.9021V0.65625V1.13749L24.9026 0.932309C24.903 0.777368 25.0368 0.654662 25.191 0.670368C25.6482 0.716956 26.0163 0.878838 26.2908 1.15319C26.3744 1.23678 26.448 1.33007 26.5111 1.43213C26.5974 1.57166 26.5331 1.75572 26.3801 1.8146L25.9625 1.97531Z" fill="url(#paint41_linear_7428_3460)"/>
    <path d="M9.73802 5.44673C10.192 5.44673 10.56 5.07871 10.56 4.62473C10.56 4.17076 10.192 3.80273 9.73802 3.80273C9.28404 3.80273 8.91602 4.17076 8.91602 4.62473C8.91602 5.07871 9.28404 5.44673 9.73802 5.44673Z" fill="url(#paint42_linear_7428_3460)"/>
    <path d="M5.3585 11.5317C5.81248 11.5317 6.1805 11.1637 6.1805 10.7097C6.1805 10.2557 5.81248 9.8877 5.3585 9.8877C4.90452 9.8877 4.5365 10.2557 4.5365 10.7097C4.5365 11.1637 4.90452 11.5317 5.3585 11.5317Z" fill="url(#paint43_linear_7428_3460)"/>
    <path d="M27.7716 13.6342C28.2256 13.6342 28.5936 13.2662 28.5936 12.8122C28.5936 12.3583 28.2256 11.9902 27.7716 11.9902C27.3176 11.9902 26.9496 12.3583 26.9496 12.8122C26.9496 13.2662 27.3176 13.6342 27.7716 13.6342Z" fill="url(#paint44_linear_7428_3460)"/>
  </g>
  <defs>
    <linearGradient id="paint0_linear_7428_3460" x1="9.01132" y1="8.35464" x2="26.1505" y2="25.4938" gradientUnits="userSpaceOnUse">
      <stop stop-color="#00AEFC"/>
      <stop offset="1" stop-color="#3F3CEE"/>
    </linearGradient>
    <linearGradient id="paint1_linear_7428_3460" x1="18.0205" y1="30.7714" x2="12.9322" y2="-5.88085" gradientUnits="userSpaceOnUse">
      <stop stop-color="#00AEFC" stop-opacity="0"/>
      <stop offset="1" stop-color="#18CFFC"/>
    </linearGradient>
    <linearGradient id="paint2_linear_7428_3460" x1="11.4168" y1="9.53424" x2="33.697" y2="25.3431" gradientUnits="userSpaceOnUse">
      <stop stop-color="#E5F3FF"/>
      <stop offset="1" stop-color="#B3CCFF"/>
    </linearGradient>
    <linearGradient id="paint3_linear_7428_3460" x1="23.5791" y1="16.4089" x2="33.5636" y2="18.1655" gradientUnits="userSpaceOnUse">
      <stop stop-color="#E5F3FF"/>
      <stop offset="1" stop-color="#B3CCFF"/>
    </linearGradient>
    <linearGradient id="paint4_linear_7428_3460" x1="20.5283" y1="12.4074" x2="30.9224" y2="-7.89962" gradientUnits="userSpaceOnUse">
      <stop stop-color="#3F3CEE" stop-opacity="0"/>
      <stop offset="1" stop-color="#2F43BC"/>
    </linearGradient>
    <linearGradient id="paint5_linear_7428_3460" x1="22.0254" y1="23.345" x2="14.8287" y2="16.1483" gradientUnits="userSpaceOnUse">
      <stop stop-color="#3F3CEE" stop-opacity="0"/>
      <stop offset="1" stop-color="#2F43BC"/>
    </linearGradient>
    <linearGradient id="paint6_linear_7428_3460" x1="12.0579" y1="11.388" x2="12.0579" y2="12.9755" gradientUnits="userSpaceOnUse">
      <stop stop-color="#F9F7FC"/>
      <stop offset="1" stop-color="#F0DDFC"/>
    </linearGradient>
    <linearGradient id="paint7_linear_7428_3460" x1="12.0579" y1="12.2473" x2="12.0579" y2="11.138" gradientUnits="userSpaceOnUse">
      <stop stop-color="#E9EDF5" stop-opacity="0"/>
      <stop offset="1" stop-color="white"/>
    </linearGradient>
    <linearGradient id="paint8_linear_7428_3460" x1="11.8443" y1="12.1028" x2="14.2534" y2="11.3785" gradientUnits="userSpaceOnUse">
      <stop stop-color="#F0DDFC" stop-opacity="0"/>
      <stop offset="0.2889" stop-color="#C8B7E0" stop-opacity="0.289"/>
      <stop offset="0.5915" stop-color="#A595C8" stop-opacity="0.592"/>
      <stop offset="0.8395" stop-color="#8F81B8" stop-opacity="0.84"/>
      <stop offset="1" stop-color="#8779B3"/>
    </linearGradient>
    <linearGradient id="paint9_linear_7428_3460" x1="12.1363" y1="11.4082" x2="11.9943" y2="12.2021" gradientUnits="userSpaceOnUse">
      <stop stop-color="#F0DDFC" stop-opacity="0"/>
      <stop offset="0.2889" stop-color="#C8B7E0" stop-opacity="0.289"/>
      <stop offset="0.5915" stop-color="#A595C8" stop-opacity="0.592"/>
      <stop offset="0.8395" stop-color="#8F81B8" stop-opacity="0.84"/>
      <stop offset="1" stop-color="#8779B3"/>
    </linearGradient>
    <linearGradient id="paint10_linear_7428_3460" x1="13.9714" y1="11.6224" x2="13.9713" y2="13.2098" gradientUnits="userSpaceOnUse">
      <stop stop-color="#F9F7FC"/>
      <stop offset="1" stop-color="#F0DDFC"/>
    </linearGradient>
    <linearGradient id="paint11_linear_7428_3460" x1="13.9714" y1="12.4815" x2="13.9714" y2="11.3723" gradientUnits="userSpaceOnUse">
      <stop stop-color="#E9EDF5" stop-opacity="0"/>
      <stop offset="1" stop-color="white"/>
    </linearGradient>
    <linearGradient id="paint12_linear_7428_3460" x1="13.7578" y1="12.3371" x2="16.167" y2="11.6128" gradientUnits="userSpaceOnUse">
      <stop stop-color="#F0DDFC" stop-opacity="0"/>
      <stop offset="0.2889" stop-color="#C8B7E0" stop-opacity="0.289"/>
      <stop offset="0.5915" stop-color="#A595C8" stop-opacity="0.592"/>
      <stop offset="0.8395" stop-color="#8F81B8" stop-opacity="0.84"/>
      <stop offset="1" stop-color="#8779B3"/>
    </linearGradient>
    <linearGradient id="paint13_linear_7428_3460" x1="14.0498" y1="11.6425" x2="13.9077" y2="12.4365" gradientUnits="userSpaceOnUse">
      <stop stop-color="#F0DDFC" stop-opacity="0"/>
      <stop offset="0.2889" stop-color="#C8B7E0" stop-opacity="0.289"/>
      <stop offset="0.5915" stop-color="#A595C8" stop-opacity="0.592"/>
      <stop offset="0.8395" stop-color="#8F81B8" stop-opacity="0.84"/>
      <stop offset="1" stop-color="#8779B3"/>
    </linearGradient>
    <linearGradient id="paint14_linear_7428_3460" x1="20.9693" y1="20.2999" x2="19.3819" y2="20.2999" gradientUnits="userSpaceOnUse">
      <stop stop-color="#F9F7FC"/>
      <stop offset="1" stop-color="#F0DDFC"/>
    </linearGradient>
    <linearGradient id="paint15_linear_7428_3460" x1="20.1103" y1="20.3001" x2="21.2195" y2="20.3001" gradientUnits="userSpaceOnUse">
      <stop stop-color="#E9EDF5" stop-opacity="0"/>
      <stop offset="1" stop-color="white"/>
    </linearGradient>
    <linearGradient id="paint16_linear_7428_3460" x1="20.2545" y1="20.5135" x2="20.9788" y2="18.1043" gradientUnits="userSpaceOnUse">
      <stop stop-color="#F0DDFC" stop-opacity="0"/>
      <stop offset="0.2889" stop-color="#C8B7E0" stop-opacity="0.289"/>
      <stop offset="0.5915" stop-color="#A595C8" stop-opacity="0.592"/>
      <stop offset="0.8395" stop-color="#8F81B8" stop-opacity="0.84"/>
      <stop offset="1" stop-color="#8779B3"/>
    </linearGradient>
    <linearGradient id="paint17_linear_7428_3460" x1="20.9492" y1="20.2215" x2="20.1553" y2="20.3635" gradientUnits="userSpaceOnUse">
      <stop stop-color="#F0DDFC" stop-opacity="0"/>
      <stop offset="0.2889" stop-color="#C8B7E0" stop-opacity="0.289"/>
      <stop offset="0.5915" stop-color="#A595C8" stop-opacity="0.592"/>
      <stop offset="0.8395" stop-color="#8F81B8" stop-opacity="0.84"/>
      <stop offset="1" stop-color="#8779B3"/>
    </linearGradient>
    <linearGradient id="paint18_linear_7428_3460" x1="20.7354" y1="18.3861" x2="19.1479" y2="18.3861" gradientUnits="userSpaceOnUse">
      <stop stop-color="#F9F7FC"/>
      <stop offset="1" stop-color="#F0DDFC"/>
    </linearGradient>
    <linearGradient id="paint19_linear_7428_3460" x1="19.8764" y1="18.3863" x2="20.9856" y2="18.3863" gradientUnits="userSpaceOnUse">
      <stop stop-color="#E9EDF5" stop-opacity="0"/>
      <stop offset="1" stop-color="white"/>
    </linearGradient>
    <linearGradient id="paint20_linear_7428_3460" x1="20.0207" y1="18.5997" x2="20.745" y2="16.1905" gradientUnits="userSpaceOnUse">
      <stop stop-color="#F0DDFC" stop-opacity="0"/>
      <stop offset="0.2889" stop-color="#C8B7E0" stop-opacity="0.289"/>
      <stop offset="0.5915" stop-color="#A595C8" stop-opacity="0.592"/>
      <stop offset="0.8395" stop-color="#8F81B8" stop-opacity="0.84"/>
      <stop offset="1" stop-color="#8779B3"/>
    </linearGradient>
    <linearGradient id="paint21_linear_7428_3460" x1="20.7152" y1="18.3077" x2="19.9212" y2="18.4497" gradientUnits="userSpaceOnUse">
      <stop stop-color="#F0DDFC" stop-opacity="0"/>
      <stop offset="0.2889" stop-color="#C8B7E0" stop-opacity="0.289"/>
      <stop offset="0.5915" stop-color="#A595C8" stop-opacity="0.592"/>
      <stop offset="0.8395" stop-color="#8F81B8" stop-opacity="0.84"/>
      <stop offset="1" stop-color="#8779B3"/>
    </linearGradient>
    <linearGradient id="paint22_linear_7428_3460" x1="8.58242" y1="21.2541" x2="8.37884" y2="22.615" gradientUnits="userSpaceOnUse">
      <stop stop-color="#FFDA45"/>
      <stop offset="0.3043" stop-color="#FFCE3E"/>
      <stop offset="0.8558" stop-color="#FFAE2B"/>
      <stop offset="1" stop-color="#FFA425"/>
    </linearGradient>
    <linearGradient id="paint23_linear_7428_3460" x1="8.11368" y1="21.8033" x2="10.1336" y2="19.7397" gradientUnits="userSpaceOnUse">
      <stop stop-color="#FFDA45" stop-opacity="0"/>
      <stop offset="1" stop-color="#B53759"/>
    </linearGradient>
    <linearGradient id="paint24_linear_7428_3460" x1="11.104" y1="23.7761" x2="9.74317" y2="23.9797" gradientUnits="userSpaceOnUse">
      <stop stop-color="#FFDA45"/>
      <stop offset="0.3043" stop-color="#FFCE3E"/>
      <stop offset="0.8558" stop-color="#FFAE2B"/>
      <stop offset="1" stop-color="#FFA425"/>
    </linearGradient>
    <linearGradient id="paint25_linear_7428_3460" x1="10.5551" y1="24.2451" x2="12.6187" y2="22.2251" gradientUnits="userSpaceOnUse">
      <stop stop-color="#FFDA45" stop-opacity="0"/>
      <stop offset="1" stop-color="#B53759"/>
    </linearGradient>
    <linearGradient id="paint26_linear_7428_3460" x1="13.5895" y1="12.3247" x2="11.4777" y2="15.8546" gradientUnits="userSpaceOnUse">
      <stop stop-color="#FFDA45"/>
      <stop offset="0.3043" stop-color="#FFCE3E"/>
      <stop offset="0.8558" stop-color="#FFAE2B"/>
      <stop offset="1" stop-color="#FFA425"/>
    </linearGradient>
    <linearGradient id="paint27_linear_7428_3460" x1="11.9405" y1="14.6283" x2="16.2817" y2="8.15866" gradientUnits="userSpaceOnUse">
      <stop stop-color="#FFDA45" stop-opacity="0"/>
      <stop offset="1" stop-color="#B53759"/>
    </linearGradient>
    <linearGradient id="paint28_linear_7428_3460" x1="10.8646" y1="13.5067" x2="12.9623" y2="16.1375" gradientUnits="userSpaceOnUse">
      <stop stop-color="#F0DDFC" stop-opacity="0"/>
      <stop offset="0.2889" stop-color="#C8B7E0" stop-opacity="0.289"/>
      <stop offset="0.5915" stop-color="#A595C8" stop-opacity="0.592"/>
      <stop offset="0.8395" stop-color="#8F81B8" stop-opacity="0.84"/>
      <stop offset="1" stop-color="#8779B3"/>
    </linearGradient>
    <linearGradient id="paint29_linear_7428_3460" x1="12.0359" y1="14.1675" x2="11.1589" y2="15.7961" gradientUnits="userSpaceOnUse">
      <stop stop-color="#FFDA45" stop-opacity="0"/>
      <stop offset="1" stop-color="#B53759"/>
    </linearGradient>
    <linearGradient id="paint30_linear_7428_3460" x1="20.0327" y1="18.7681" x2="16.5028" y2="20.88" gradientUnits="userSpaceOnUse">
      <stop stop-color="#FFDA45"/>
      <stop offset="0.3043" stop-color="#FFCE3E"/>
      <stop offset="0.8558" stop-color="#FFAE2B"/>
      <stop offset="1" stop-color="#FFA425"/>
    </linearGradient>
    <linearGradient id="paint31_linear_7428_3460" x1="18.154" y1="20.1327" x2="24.6236" y2="15.7915" gradientUnits="userSpaceOnUse">
      <stop stop-color="#FFDA45" stop-opacity="0"/>
      <stop offset="1" stop-color="#B53759"/>
    </linearGradient>
    <linearGradient id="paint32_linear_7428_3460" x1="19.098" y1="21.6898" x2="16.4672" y2="19.5921" gradientUnits="userSpaceOnUse">
      <stop stop-color="#FFDA45" stop-opacity="0"/>
      <stop offset="1" stop-color="#B53759"/>
    </linearGradient>
    <linearGradient id="paint33_linear_7428_3460" x1="18.1903" y1="20.3218" x2="16.5617" y2="21.1988" gradientUnits="userSpaceOnUse">
      <stop stop-color="#FFDA45" stop-opacity="0"/>
      <stop offset="1" stop-color="#B53759"/>
    </linearGradient>
    <linearGradient id="paint34_linear_7428_3460" x1="14.9405" y1="16.2619" x2="16.7258" y2="18.0472" gradientUnits="userSpaceOnUse">
      <stop stop-color="#E5F3FF"/>
      <stop offset="1" stop-color="#B3CCFF"/>
    </linearGradient>
    <linearGradient id="paint35_linear_7428_3460" x1="16.1776" y1="17.4272" x2="13.6372" y2="15.1589" gradientUnits="userSpaceOnUse">
      <stop stop-color="#E5F3FF" stop-opacity="0"/>
      <stop offset="1" stop-color="white"/>
    </linearGradient>
    <linearGradient id="paint36_linear_7428_3460" x1="15.3911" y1="19.1347" x2="19.3442" y2="-8.46065" gradientUnits="userSpaceOnUse">
      <stop stop-color="#B3CCFF" stop-opacity="0"/>
      <stop offset="1" stop-color="#9FB0CB"/>
    </linearGradient>
    <linearGradient id="paint37_linear_7428_3460" x1="19.6234" y1="11.1069" x2="21.1782" y2="13.5501" gradientUnits="userSpaceOnUse">
      <stop stop-color="#8B788A"/>
      <stop offset="1" stop-color="#6E566E"/>
    </linearGradient>
    <linearGradient id="paint38_linear_7428_3460" x1="20.4082" y1="12.3364" x2="19.9964" y2="10.9099" gradientUnits="userSpaceOnUse">
      <stop stop-color="#8B788A" stop-opacity="0"/>
      <stop offset="1" stop-color="#9E8C92"/>
    </linearGradient>
    <linearGradient id="paint39_linear_7428_3460" x1="20.7274" y1="12.6594" x2="21.7046" y2="10.1449" gradientUnits="userSpaceOnUse">
      <stop stop-color="#555A66" stop-opacity="0"/>
      <stop offset="1" stop-color="#555A66"/>
    </linearGradient>
    <linearGradient id="paint40_linear_7428_3460" x1="10.5423" y1="21.7189" x2="10.754" y2="21.9306" gradientUnits="userSpaceOnUse">
      <stop stop-color="#E5F3FF"/>
      <stop offset="1" stop-color="#B3CCFF"/>
    </linearGradient>
    <linearGradient id="paint41_linear_7428_3460" x1="0" y1="14.0501" x2="26.7254" y2="14.0501" gradientUnits="userSpaceOnUse">
      <stop stop-color="#FF7044"/>
      <stop offset="1" stop-color="#F92814"/>
    </linearGradient>
    <linearGradient id="paint42_linear_7428_3460" x1="9.67431" y1="4.56109" x2="10.5797" y2="5.46644" gradientUnits="userSpaceOnUse">
      <stop stop-color="#FF7044"/>
      <stop offset="1" stop-color="#F92814"/>
    </linearGradient>
    <linearGradient id="paint43_linear_7428_3460" x1="5.01079" y1="10.362" x2="5.9982" y2="11.3495" gradientUnits="userSpaceOnUse">
      <stop stop-color="#92F37F"/>
      <stop offset="1" stop-color="#4AB272"/>
    </linearGradient>
    <linearGradient id="paint44_linear_7428_3460" x1="27.2642" y1="12.3049" x2="28.6809" y2="13.7215" gradientUnits="userSpaceOnUse">
      <stop stop-color="#92F37F"/>
      <stop offset="1" stop-color="#4AB272"/>
    </linearGradient>
    <clipPath id="clip0_7428_3460">
      <rect width="30" height="30" fill="white"/>
    </clipPath>
  </defs>
</svg>